PathFileType	3	(X/Y/Z)	dance_move_1__view1_aligned.trc
DataRate	CameraRate	NumFrames	NumMarkers	Units	OrigDataRate	OrigDataStartFrame	OrigNumFrames
100.0	100.0	7	19	mm	100.0	705	890
Frame#	Time	pelvis			neck			head			hip_left			hip_right			knee_left			knee_right			ankle_left			ankle_right			heel_left			heel_right			toe_left			toe_right			shoulder_left			shoulder_right			elbow_left			elbow_right			wrist_left			wrist_right			
		X1	Y1	Z1	X2	Y2	Z2	X3	Y3	Z3	X4	Y4	Z4	X5	Y5	Z5	X6	Y6	Z6	X7	Y7	Z7	X8	Y8	Z8	X9	Y9	Z9	X10	Y10	Z10	X11	Y11	Z11	X12	Y12	Z12	X13	Y13	Z13	X14	Y14	Z14	X15	Y15	Z15	X16	Y16	Z16	X17	Y17	Z17	X18	Y18	Z18	X19	Y19	Z19	
705	7.04000	119.060291	752.364373	141.662773	90.773528	1230.586583	-130.665676	87.136675	1283.446745	-290.704249	39.930231	754.966198	150.154035	198.190365	749.762549	133.171525	-149.682162	517.236187	-122.800281	272.211794	477.076213	-165.529128	-106.115146	173.349418	49.285706	243.473550	124.702611	-13.525626	-86.833628	131.549228	84.099614	236.956301	85.616083	28.817235	-216.494749	121.877028	-89.465697	250.914680	48.372885	-188.498173	-91.008696	1183.877807	-82.853041	275.091310	1186.739459	-103.312417	-174.062380	925.420306	-78.884845	330.646877	921.123666	-163.243988	-155.245930	709.082313	-197.766820	337.143545	724.461229	-278.316001
706	7.05000	117.196190	751.188076	143.580251	89.177798	1229.588241	-127.830157	85.497737	1282.730562	-287.871760	38.298814	753.831311	152.088704	196.093584	748.544842	135.071815	-146.864989	515.989361	-123.232210	266.398899	476.688376	-165.086507	-106.295633	172.524529	49.965688	241.668551	124.869366	-12.282172	-87.669333	130.766303	85.096184	235.840429	85.857039	30.150363	-214.814037	121.178157	-89.918691	248.768865	48.469745	-187.050061	-92.707606	1182.058523	-80.902682	273.568606	1185.671257	-101.092435	-170.462374	923.049687	-78.495741	324.902545	920.172388	-162.614360	-147.849556	707.327120	-195.940675	324.709079	726.134423	-278.775586
707	7.06000	115.332090	750.011779	145.497729	87.582069	1228.589898	-124.994639	83.858799	1282.014379	-285.039271	36.667396	752.696424	154.023373	193.996803	747.327135	136.972104	-144.047817	514.742536	-123.664139	260.586004	476.300539	-164.643887	-106.476121	171.699640	50.645671	239.863553	125.036122	-11.038717	-88.505038	129.983377	86.092755	234.724557	86.097995	31.483491	-213.133325	120.479286	-90.371685	246.623049	48.566604	-185.601949	-94.406515	1180.239238	-78.952323	272.045902	1184.603055	-98.872452	-166.862368	920.679069	-78.106636	319.158212	919.221111	-161.984731	-140.453183	705.571927	-194.114530	312.274614	727.807618	-279.235170
708	7.07000	113.467990	748.835482	147.415208	85.986340	1227.591556	-122.159121	82.219861	1281.298195	-282.206782	35.035979	751.561537	155.958043	191.900022	746.109427	138.872394	-141.230644	513.495710	-124.096068	254.773110	475.912702	-164.201266	-106.656608	170.874751	51.325654	238.058555	125.202877	-9.795262	-89.340743	129.200452	87.089325	233.608685	86.338950	32.816618	-211.452613	119.780415	-90.824679	244.477234	48.663463	-184.153837	-96.105424	1178.419953	-77.001964	270.523198	1183.534854	-96.652470	-163.262362	918.308450	-77.717532	313.413879	918.269834	-161.355102	-133.056810	703.816734	-192.288385	299.840148	729.480812	-279.694755
709	7.08000	112.448683	747.113631	148.259252	85.300546	1226.147406	-119.879817	81.416794	1280.989482	-279.568878	34.232663	749.978274	156.860142	190.664704	744.248988	139.658396	-138.538877	512.149135	-126.383989	250.016078	476.289836	-166.592031	-105.866540	170.171257	51.394419	237.842960	125.764562	-10.625293	-89.107334	128.549651	87.557143	234.173801	86.942604	32.158619	-209.110701	119.289460	-91.724128	243.779298	49.100238	-184.760119	-96.992417	1175.607220	-76.066091	270.144815	1182.022373	-95.114249	-156.714023	914.131399	-80.184866	307.767068	916.368356	-161.889931	-120.152828	701.255134	-195.138654	286.525074	729.672832	-282.155126
710	7.09000	111.429377	745.391779	149.103296	84.614753	1224.703257	-117.600512	80.613727	1280.680769	-276.930973	33.429347	748.395011	157.762242	189.429386	742.388548	140.444398	-135.847110	510.802560	-128.671911	245.259046	476.666970	-168.982796	-105.076472	169.467764	51.463184	237.627365	126.326246	-11.455323	-88.873926	127.898850	88.024961	234.738917	87.546258	31.500621	-206.768788	118.798505	-92.623577	243.081363	49.537013	-185.366400	-97.879411	1172.794488	-75.130217	269.766432	1180.509892	-93.576028	-150.165684	909.954348	-82.652201	302.120257	914.466878	-162.424760	-107.248847	698.693535	-197.988924	273.209999	729.864853	-284.615498
711	7.10000	110.410071	743.669928	149.947341	83.928960	1223.259107	-115.321207	79.810660	1280.372056	-274.293069	32.626031	746.811748	158.664342	188.194069	740.528109	141.230400	-133.155344	509.455985	-130.959833	240.502014	477.044104	-171.373561	-104.286404	168.764270	51.531948	237.411770	126.887931	-12.285353	-88.640518	127.248049	88.492779	235.304033	88.149911	30.842622	-204.426875	118.307550	-93.523026	242.383427	49.973788	-185.972681	-98.766404	1169.981755	-74.194344	269.388049	1178.997411	-92.037807	-143.617344	905.777297	-85.119535	296.473446	912.565400	-162.959589	-94.344866	696.131935	-200.839193	259.894925	730.056873	-287.075869
